<?xml version="1.0" encoding="UTF-8"?>
<svg width="600" height="400" viewBox="0 0 600 400" xmlns="http://www.w3.org/2000/svg">
  <!-- Background -->
  <rect width="600" height="400" rx="8" fill="#1e2122"/>
  
  <!-- Browser Window Frame -->
  <rect x="10" y="10" width="580" height="380" rx="6" fill="#2d3035"/>
  
  <!-- Browser URL Bar -->
  <rect x="20" y="20" width="560" height="30" rx="4" fill="#1a1c1e"/>
  <circle cx="35" cy="35" r="5" fill="#ff605c"/>
  <circle cx="55" cy="35" r="5" fill="#ffbd44"/>
  <circle cx="75" cy="35" r="5" fill="#00ca4e"/>
  <rect x="95" y="28" width="470" height="14" rx="7" fill="#38393d"/>
  <text x="110" y="38" font-family="Arial" font-size="10" fill="#8c8c8c">http://192.168.0.1/index.html</text>
  
  <!-- Tenda Header -->
  <rect x="20" y="60" width="560" height="60" rx="4" fill="#0088cc"/>
  <text x="50" y="95" font-family="Arial" font-weight="bold" font-size="22" fill="#ffffff">TENDA</text>
  <text x="130" y="95" font-family="Arial" font-size="14" fill="#def1fa">WiFi Router Admin Panel</text>
  
  <!-- Admin Welcome Text -->
  <rect x="430" y="75" width="130" height="30" rx="15" fill="#0075af"/>
  <text x="440" y="95" font-family="Arial" font-size="12" fill="#ffffff">Welcome, admin</text>
  <circle cx="555" cy="89" r="10" fill="#def1fa"/>
  <text x="551" y="93" font-family="Arial" font-weight="bold" font-size="14" fill="#0088cc">?</text>
  
  <!-- Left Sidebar Navigation -->
  <rect x="20" y="130" width="150" height="250" rx="4" fill="#2a2c30"/>
  
  <!-- Navigation Items -->
  <!-- Current Selected Item -->
  <rect x="20" y="130" width="150" height="40" rx="4" fill="#0088cc"/>
  <text x="45" y="155" font-family="Arial" font-size="12" fill="#ffffff">Dashboard</text>
  
  <text x="45" y="195" font-family="Arial" font-size="12" fill="#8c8c8c">Internet Settings</text>
  <text x="45" y="235" font-family="Arial" font-size="12" fill="#8c8c8c">Wireless Settings</text>
  <text x="45" y="275" font-family="Arial" font-size="12" fill="#8c8c8c">Advanced Settings</text>
  <text x="45" y="315" font-family="Arial" font-size="12" fill="#8c8c8c">System Tools</text>
  <text x="45" y="355" font-family="Arial" font-size="12" fill="#8c8c8c">Parental Controls</text>
  
  <!-- Main Content Area -->
  <rect x="180" y="130" width="400" height="250" rx="4" fill="#38393d"/>
  
  <!-- Dashboard Status Cards -->
  <rect x="195" y="145" width="180" height="100" rx="4" fill="#2a2c30"/>
  <text x="205" y="165" font-family="Arial" font-weight="bold" font-size="14" fill="#ffffff">Internet Status</text>
  <circle cx="215" cy="185" r="8" fill="#00ca4e"/>
  <text x="230" y="190" font-family="Arial" font-size="12" fill="#cccccc">Connected</text>
  <text x="205" y="210" font-family="Arial" font-size="11" fill="#8c8c8c">IP: 192.168.0.1</text>
  <text x="205" y="230" font-family="Arial" font-size="11" fill="#8c8c8c">Uptime: 5d 12h 34m</text>
  
  <rect x="385" y="145" width="180" height="100" rx="4" fill="#2a2c30"/>
  <text x="395" y="165" font-family="Arial" font-weight="bold" font-size="14" fill="#ffffff">WiFi Status</text>
  <circle cx="405" cy="185" r="8" fill="#00ca4e"/>
  <text x="420" y="190" font-family="Arial" font-size="12" fill="#cccccc">Active</text>
  <text x="395" y="210" font-family="Arial" font-size="11" fill="#8c8c8c">SSID: Tenda_2G4F5E</text>
  <text x="395" y="230" font-family="Arial" font-size="11" fill="#8c8c8c">Channel: 6 (Auto)</text>
  
  <!-- Connected Devices -->
  <rect x="195" y="255" width="370" height="110" rx="4" fill="#2a2c30"/>
  <text x="205" y="275" font-family="Arial" font-weight="bold" font-size="14" fill="#ffffff">Connected Devices (3)</text>
  
  <!-- Device List Table Header -->
  <rect x="205" y="285" width="350" height="25" rx="2" fill="#1c1d20"/>
  <text x="215" y="301" font-family="Arial" font-size="11" fill="#8c8c8c">Device Name</text>
  <text x="335" y="301" font-family="Arial" font-size="11" fill="#8c8c8c">IP Address</text>
  <text x="435" y="301" font-family="Arial" font-size="11" fill="#8c8c8c">Connection Type</text>
  <text x="535" y="301" font-family="Arial" font-size="11" fill="#8c8c8c">Status</text>
  
  <!-- Device 1 -->
  <text x="215" y="326" font-family="Arial" font-size="11" fill="#cccccc">John's Laptop</text>
  <text x="335" y="326" font-family="Arial" font-size="11" fill="#cccccc">192.168.0.100</text>
  <text x="435" y="326" font-family="Arial" font-size="11" fill="#cccccc">WiFi (5GHz)</text>
  <text x="535" y="326" font-family="Arial" font-size="11" fill="#00ca4e">Online</text>
  
  <!-- Device 2 -->
  <text x="215" y="346" font-family="Arial" font-size="11" fill="#cccccc">Living Room TV</text>
  <text x="335" y="346" font-family="Arial" font-size="11" fill="#cccccc">192.168.0.101</text>
  <text x="435" y="346" font-family="Arial" font-size="11" fill="#cccccc">WiFi (2.4GHz)</text>
  <text x="535" y="346" font-family="Arial" font-size="11" fill="#00ca4e">Online</text>
  
  <!-- Device 3 -->
  <text x="215" y="366" font-family="Arial" font-size="11" fill="#cccccc">Sarah's Phone</text>
  <text x="335" y="366" font-family="Arial" font-size="11" fill="#cccccc">192.168.0.102</text>
  <text x="435" y="366" font-family="Arial" font-size="11" fill="#cccccc">WiFi (2.4GHz)</text>
  <text x="535" y="366" font-family="Arial" font-size="11" fill="#00ca4e">Online</text>
</svg>