<?xml version="1.0" encoding="UTF-8" standalone="no"?>
<svg width="600" height="400" viewBox="0 0 600 400" xmlns="http://www.w3.org/2000/svg" xmlns:xlink="http://www.w3.org/1999/xlink">
  <!-- Router Admin Panel Background -->
  <rect x="0" y="0" width="600" height="400" fill="#f0f0f0" />
  
  <!-- D-Link Header -->
  <rect x="0" y="0" width="600" height="60" fill="#2a5db0" />
  <text x="30" y="38" font-family="Arial" font-size="24" fill="#ffffff" font-weight="bold">D-Link</text>
  
  <!-- Navigation Menu -->
  <rect x="0" y="60" width="600" height="40" fill="#ffffff" />
  <text x="30" y="85" font-family="Arial" font-size="14" fill="#2a5db0" font-weight="bold">Setup</text>
  <text x="120" y="85" font-family="Arial" font-size="14" fill="#666666">Advanced</text>
  <text x="220" y="85" font-family="Arial" font-size="14" fill="#666666">Tools</text>
  <text x="290" y="85" font-family="Arial" font-size="14" fill="#666666">Status</text>
  <text x="360" y="85" font-family="Arial" font-size="14" fill="#666666">Support</text>
  
  <!-- Left Menu -->
  <rect x="0" y="100" width="180" height="300" fill="#e0e0e0" />
  <text x="20" y="130" font-family="Arial" font-size="14" fill="#666666">Internet</text>
  <text x="20" y="160" font-family="Arial" font-size="14" fill="#2a5db0" font-weight="bold">Wireless Settings</text>
  <rect x="0" y="142" width="180" height="25" fill="#2a5db0" opacity="0.1" />
  <text x="20" y="190" font-family="Arial" font-size="14" fill="#666666">Network Settings</text>
  <text x="20" y="220" font-family="Arial" font-size="14" fill="#666666">SharePort</text>
  <text x="20" y="250" font-family="Arial" font-size="14" fill="#666666">mydlink Settings</text>
  
  <!-- Content Area Title -->
  <text x="200" y="130" font-family="Arial" font-size="18" fill="#2a5db0" font-weight="bold">Wireless Settings</text>
  
  <!-- Settings Panel -->
  <rect x="200" y="150" width="380" height="230" fill="#ffffff" stroke="#dddddd" stroke-width="1" rx="5" ry="5" />
  
  <!-- Form Fields -->
  <text x="220" y="180" font-family="Arial" font-size="14" fill="#333333">Wireless Network Name:</text>
  <rect x="380" y="165" width="180" height="30" rx="3" ry="3" fill="#f9f9f9" stroke="#dddddd" stroke-width="1" />
  <text x="390" y="185" font-family="Arial" font-size="14" fill="#666666">dlink-AC1200</text>
  
  <text x="220" y="220" font-family="Arial" font-size="14" fill="#333333">802.11 Mode:</text>
  <rect x="380" y="205" width="180" height="30" rx="3" ry="3" fill="#f9f9f9" stroke="#dddddd" stroke-width="1" />
  <text x="390" y="225" font-family="Arial" font-size="14" fill="#666666">Mixed 802.11n/g/b</text>
  <text x="540" y="225" font-family="Arial" font-size="12" fill="#666666">▼</text>
  
  <text x="220" y="260" font-family="Arial" font-size="14" fill="#333333">Security Mode:</text>
  <rect x="380" y="245" width="180" height="30" rx="3" ry="3" fill="#f9f9f9" stroke="#dddddd" stroke-width="1" />
  <text x="390" y="265" font-family="Arial" font-size="14" fill="#666666">WPA2</text>
  <text x="540" y="265" font-family="Arial" font-size="12" fill="#666666">▼</text>
  
  <!-- Password Field - Highlighted -->
  <text x="220" y="300" font-family="Arial" font-size="14" fill="#333333" font-weight="bold">Pre-Shared Key:</text>
  <rect x="380" y="285" width="180" height="30" rx="3" ry="3" fill="#e6edf9" stroke="#2a5db0" stroke-width="2" />
  <text x="390" y="305" font-family="Arial" font-size="14" fill="#666666">MyDlinkNetwork2025!</text>
  
  <!-- Buttons -->
  <rect x="380" y="330" width="80" height="35" rx="5" ry="5" fill="#f0f0f0" stroke="#dddddd" stroke-width="1" />
  <text x="400" y="353" font-family="Arial" font-size="14" fill="#666666">Cancel</text>
  
  <rect x="480" y="330" width="80" height="35" rx="5" ry="5" fill="#2a5db0" />
  <text x="500" y="353" font-family="Arial" font-size="14" fill="#ffffff">Save</text>
  
  <!-- Callout for Password Field -->
  <path d="M 430 285 L 480 220 L 530 220" stroke="#e74c3c" stroke-width="2" fill="none" />
  <rect x="530" y="200" width="150" height="40" rx="5" ry="5" transform="translate(-80, 0)" fill="#e74c3c" />
  <text x="470" y="225" font-family="Arial" font-size="12" fill="#ffffff" font-weight="bold">Set New Password Here</text>
</svg>