<?xml version="1.0" encoding="UTF-8" standalone="no"?>
<svg width="600" height="400" viewBox="0 0 600 400" xmlns="http://www.w3.org/2000/svg" xmlns:xlink="http://www.w3.org/1999/xlink">
  <!-- Router Admin Panel Background -->
  <rect x="0" y="0" width="600" height="400" fill="#f8f8f8" />
  
  <!-- Netgear Header -->
  <rect x="0" y="0" width="600" height="60" fill="#00923f" />
  <text x="30" y="38" font-family="Arial" font-size="24" fill="#ffffff" font-weight="bold">NETGEAR</text>
  
  <!-- Navigation Tabs -->
  <rect x="30" y="80" width="80" height="40" rx="5" ry="5" fill="#f0f0f0" stroke="#dddddd" stroke-width="1" />
  <text x="45" y="105" font-family="Arial" font-size="14" fill="#666666">BASIC</text>
  
  <rect x="115" y="80" width="100" height="40" rx="5" ry="5" fill="#00923f" />
  <text x="130" y="105" font-family="Arial" font-size="14" fill="#ffffff">ADVANCED</text>
  
  <!-- Left Menu -->
  <rect x="30" y="130" width="160" height="240" fill="#f0f0f0" stroke="#dddddd" stroke-width="1" rx="5" ry="5" />
  
  <rect x="30" y="130" width="160" height="40" fill="#00923f" />
  <text x="50" y="155" font-family="Arial" font-size="14" fill="#ffffff">Wireless</text>
  
  <text x="50" y="195" font-family="Arial" font-size="14" fill="#666666">Internet</text>
  <text x="50" y="235" font-family="Arial" font-size="14" fill="#666666">Security</text>
  <text x="50" y="275" font-family="Arial" font-size="14" fill="#666666">Quality of Service</text>
  <text x="50" y="315" font-family="Arial" font-size="14" fill="#666666">USB Storage</text>
  <text x="50" y="355" font-family="Arial" font-size="14" fill="#666666">Administration</text>
  
  <!-- Content Area -->
  <rect x="200" y="130" width="370" height="240" fill="#ffffff" stroke="#dddddd" stroke-width="1" rx="5" ry="5" />
  <text x="220" y="160" font-family="Arial" font-size="18" fill="#333333" font-weight="bold">Wireless Settings</text>
  
  <!-- Wireless Settings Form -->
  <text x="220" y="195" font-family="Arial" font-size="14" fill="#333333">Region:</text>
  <rect x="350" y="180" width="200" height="30" rx="3" ry="3" fill="#f9f9f9" stroke="#dddddd" stroke-width="1" />
  <text x="360" y="200" font-family="Arial" font-size="14" fill="#666666">United States</text>
  <text x="530" y="200" font-family="Arial" font-size="14" fill="#666666">▼</text>
  
  <text x="220" y="235" font-family="Arial" font-size="14" fill="#333333">Name (SSID):</text>
  <rect x="350" y="220" width="200" height="30" rx="3" ry="3" fill="#f9f9f9" stroke="#dddddd" stroke-width="1" />
  <text x="360" y="240" font-family="Arial" font-size="14" fill="#666666">NETGEAR57</text>
  
  <text x="220" y="275" font-family="Arial" font-size="14" fill="#333333">Channel:</text>
  <rect x="350" y="260" width="200" height="30" rx="3" ry="3" fill="#f9f9f9" stroke="#dddddd" stroke-width="1" />
  <text x="360" y="280" font-family="Arial" font-size="14" fill="#666666">Auto</text>
  <text x="530" y="280" font-family="Arial" font-size="14" fill="#666666">▼</text>
  
  <!-- Password Field - Highlighted -->
  <text x="220" y="315" font-family="Arial" font-size="14" fill="#333333" font-weight="bold">Password (Network Key):</text>
  <rect x="350" y="300" width="200" height="30" rx="3" ry="3" fill="#e6f7ed" stroke="#00923f" stroke-width="2" />
  <text x="360" y="320" font-family="Arial" font-size="14" fill="#666666">MySecureWiFiKey2025</text>
  
  <!-- Buttons -->
  <rect x="350" y="340" width="90" height="30" rx="15" ry="15" fill="#f0f0f0" stroke="#dddddd" stroke-width="1" />
  <text x="370" y="360" font-family="Arial" font-size="14" fill="#666666">Cancel</text>
  
  <rect x="460" y="340" width="90" height="30" rx="15" ry="15" fill="#00923f" />
  <text x="480" y="360" font-family="Arial" font-size="14" fill="#ffffff">Apply</text>
  
  <!-- Callout for Password Field -->
  <path d="M 450 300 L 500 220 L 550 220" stroke="#e74c3c" stroke-width="2" fill="none" />
  <rect x="550" y="200" width="160" height="40" rx="5" ry="5" transform="translate(-110, 0)" fill="#e74c3c" />
  <text x="460" y="225" font-family="Arial" font-size="12" fill="#ffffff" font-weight="bold">Change Password Here</text>
</svg>