<?xml version="1.0" encoding="UTF-8" standalone="no"?>
<svg width="600" height="400" viewBox="0 0 600 400" xmlns="http://www.w3.org/2000/svg" xmlns:xlink="http://www.w3.org/1999/xlink">
  <!-- Router Admin Panel Background -->
  <rect x="0" y="0" width="600" height="400" fill="#ffffff" />
  
  <!-- Tenda Header -->
  <rect x="0" y="0" width="600" height="60" fill="#f57c00" />
  <text x="30" y="38" font-family="Arial" font-size="24" fill="#ffffff" font-weight="bold">Tenda</text>
  
  <!-- Navigation Menu -->
  <rect x="0" y="60" width="600" height="40" fill="#f5f5f5" />
  <text x="30" y="85" font-family="Arial" font-size="14" fill="#f57c00" font-weight="bold">Wireless Settings</text>
  <text x="170" y="85" font-family="Arial" font-size="14" fill="#666666">Internet Settings</text>
  <text x="320" y="85" font-family="Arial" font-size="14" fill="#666666">Parent Control</text>
  <text x="450" y="85" font-family="Arial" font-size="14" fill="#666666">Advanced</text>
  
  <!-- Content Area Title -->
  <text x="30" y="130" font-family="Arial" font-size="18" fill="#333333" font-weight="bold">Wi-Fi Settings</text>
  
  <!-- Settings Panel -->
  <rect x="30" y="150" width="540" height="230" fill="#ffffff" stroke="#eeeeee" stroke-width="1" rx="5" ry="5" />
  
  <!-- Form Fields -->
  <text x="50" y="180" font-family="Arial" font-size="14" fill="#333333">Wi-Fi Name (SSID):</text>
  <rect x="250" y="165" width="300" height="30" rx="3" ry="3" fill="#f9f9f9" stroke="#eeeeee" stroke-width="1" />
  <text x="260" y="185" font-family="Arial" font-size="14" fill="#666666">Tenda_123456</text>
  
  <text x="50" y="220" font-family="Arial" font-size="14" fill="#333333">Hide SSID:</text>
  <rect x="250" y="205" width="300" height="30" rx="3" ry="3" fill="#f9f9f9" stroke="#eeeeee" stroke-width="1" />
  <text x="260" y="225" font-family="Arial" font-size="14" fill="#666666">Disable</text>
  <text x="530" y="225" font-family="Arial" font-size="14" fill="#666666">▼</text>
  
  <text x="50" y="260" font-family="Arial" font-size="14" fill="#333333">Security Mode:</text>
  <rect x="250" y="245" width="300" height="30" rx="3" ry="3" fill="#f9f9f9" stroke="#eeeeee" stroke-width="1" />
  <text x="260" y="265" font-family="Arial" font-size="14" fill="#666666">WPA-PSK/WPA2-PSK</text>
  <text x="530" y="265" font-family="Arial" font-size="14" fill="#666666">▼</text>
  
  <!-- Password Field - Highlighted -->
  <text x="50" y="300" font-family="Arial" font-size="14" fill="#333333" font-weight="bold">Wi-Fi Password:</text>
  <rect x="250" y="285" width="300" height="30" rx="3" ry="3" fill="#fff3e0" stroke="#f57c00" stroke-width="2" />
  <text x="260" y="305" font-family="Arial" font-size="14" fill="#666666">MyTendaPassword123</text>
  
  <!-- Password Requirements -->
  <text x="250" y="325" font-family="Arial" font-size="12" fill="#999999">8-32 characters</text>
  
  <!-- Buttons -->
  <rect x="400" y="340" width="80" height="30" rx="15" ry="15" fill="#f5f5f5" stroke="#eeeeee" stroke-width="1" />
  <text x="420" y="360" font-family="Arial" font-size="14" fill="#666666">Cancel</text>
  
  <rect x="490" y="340" width="80" height="30" rx="15" ry="15" fill="#f57c00" />
  <text x="515" y="360" font-family="Arial" font-size="14" fill="#ffffff">Save</text>
  
  <!-- Callout for Password Field -->
  <path d="M 400 285 L 450 220 L 500 220" stroke="#e74c3c" stroke-width="2" fill="none" />
  <rect x="500" y="200" width="150" height="40" rx="5" ry="5" transform="translate(-80, 0)" fill="#e74c3c" />
  <text x="440" y="225" font-family="Arial" font-size="12" fill="#ffffff" font-weight="bold">Enter New Password Here</text>
</svg>